<?xml version="1.0" standalone="no"?>
<svg width="296" height="66" viewBox="0 0 296 66" fill="none" xmlns="http://www.w3.org/2000/svg">
<g clip-path="url(#clip0_44_1150)">
<path d="M278.534 20.9143C281.428 17.9327 282.76 13.9974 282.47 10.062L286.002 13.6988L293.004 20.9124C296.999 25.0261 296.999 31.7046 293.004 35.8183L276.104 53.2288C272.108 57.3426 265.626 57.3426 261.632 53.2288C257.639 49.1151 257.639 42.4367 261.632 38.3229L278.534 20.9124V20.9143Z" fill="#FF4200"/>
<path d="M278.534 20.9143C281.428 17.9327 282.76 13.9974 282.47 10.062L286.002 13.6988L293.004 20.9124C296.999 25.0261 296.999 31.7046 293.004 35.8183L276.104 53.2288C272.108 57.3426 265.626 57.3426 261.632 53.2288C257.639 49.1151 257.639 42.4367 261.632 38.3229L278.534 20.9124V20.9143Z" fill="#FF4200"/>
<path d="M276.102 3.50179C280.095 7.61551 280.095 14.294 276.102 18.4077L268.866 25.8597L261.632 18.4077C257.637 14.294 257.637 7.61551 261.632 3.50179C265.626 -0.611926 272.108 -0.611926 276.102 3.50179Z" fill="#9D20FF"/>
<path d="M38.4073 14.4516C28.9778 14.4516 21.3427 22.3148 21.3427 32.0237C21.3427 41.7325 29.0362 49.5938 38.4073 49.5938C47.7784 49.5938 55.4718 41.7325 55.4718 32.0237C55.4718 22.3148 47.8367 14.4516 38.4073 14.4516ZM38.4073 42.5661C32.7379 42.5661 28.1682 37.861 28.1682 32.0237C28.1682 26.1864 32.7963 21.4812 38.4073 21.4812C44.0183 21.4812 48.6464 26.1864 48.6464 32.0237C48.6464 37.861 44.0766 42.5661 38.4073 42.5661ZM159.187 14.4516C155.368 14.4516 151.783 15.7622 148.947 17.9664V7.42396C148.947 5.45816 147.443 3.90918 145.534 3.90918H142.12V49.5938H148.946V46.079C151.779 48.2833 155.366 49.5938 159.185 49.5938C168.614 49.5938 176.249 41.7325 176.249 32.0237C176.249 22.3148 168.614 14.4516 159.185 14.4516H159.187ZM159.187 42.5661C153.517 42.5661 148.947 37.861 148.947 32.0237C148.947 26.1864 153.517 21.4812 159.187 21.4812C164.856 21.4812 169.426 26.1864 169.426 32.0237C169.426 37.861 164.856 42.5661 159.187 42.5661ZM127.835 14.4516H134.66V47.5097C134.66 57.1585 127.257 65.2 117.886 65.3784C108.341 65.5568 100.533 57.6354 100.533 47.8064H104.351C105.912 47.8064 107.243 48.8785 107.648 50.4274C108.804 55.0725 112.969 58.469 117.887 58.3488C123.44 58.1705 127.837 53.3452 127.837 47.5679V42.5042C124.944 44.7084 121.358 46.019 117.483 46.019C108.053 45.9589 100.535 37.8591 100.535 28.1503V14.4516H103.947C105.856 14.4516 107.36 16.0006 107.36 17.9664V28.2704C107.36 33.9895 111.698 38.873 117.309 39.0514C123.094 39.2297 127.837 34.4063 127.837 28.5089V14.4516H127.835ZM94.4004 32.0237V49.5938H90.9868C89.0775 49.5938 87.5749 48.0448 87.5749 46.079V32.0218C87.5749 26.1845 83.0052 21.4793 77.3359 21.4793C71.6665 21.4793 67.0968 26.1845 67.0968 32.0218V49.5919H60.2713V14.4516H67.0968V17.9664C69.9305 15.7622 73.5174 14.4516 77.3359 14.4516C86.7653 14.4516 94.4004 22.3148 94.4004 32.0237ZM17.2927 42.5661V49.5938C7.86507 49.5938 0.22998 41.7306 0.22998 32.0218V7.42208H3.64362C5.55285 7.42208 7.05725 8.97106 7.05725 10.9369V14.4516H17.2963V21.4793H7.05725V32.0218C7.05725 37.799 11.627 42.5643 17.2963 42.5643L17.2927 42.5661ZM226.053 21.4812V32.0237C226.053 37.861 230.623 42.5661 236.292 42.5661V49.5938C226.863 49.5938 219.228 41.7325 219.228 32.0237V7.42208H222.642C224.549 7.42208 226.053 8.97106 226.053 10.9369V14.4516H236.292V21.4793H226.053V21.4812ZM213.963 34.4664C214.08 33.6928 214.138 32.8573 214.138 32.0237C214.138 22.0764 206.155 14.0949 196.437 14.4516C187.588 14.8084 180.414 22.1947 180.068 31.3083C179.721 41.3157 187.471 49.5337 197.132 49.5337C202.685 49.5337 207.601 46.7944 210.666 42.6243L208.584 41.3739C206.56 40.1835 204.014 40.1234 201.932 41.2556C200.254 42.2094 198.288 42.6844 196.206 42.4478C191.809 42.031 188.166 38.7547 187.125 34.4063H213.963V34.4664ZM198.115 21.5413C202.048 21.9581 205.404 24.7575 206.677 28.5108H187.413C188.917 24.1023 193.197 21.0062 198.115 21.5413Z" fill="white"/>
</g>
<defs>
<clipPath id="clip0_44_1150">
<rect width="295.77" height="64.9634" fill="white" transform="translate(0.22998 0.416992)"/>
</clipPath>
</defs>
</svg>
