<?xml version="1.0" encoding="utf-8"?>
<!-- Generator: Adobe Illustrator 24.1.1, SVG Export Plug-In . SVG Version: 6.00 Build 0)  -->
<svg version="1.1" id="Layer_1" xmlns="http://www.w3.org/2000/svg" xmlns:xlink="http://www.w3.org/1999/xlink" x="0px" y="0px"
	 viewBox="0 0 511 115" style="enable-background:new 0 0 511 115;" xml:space="preserve">
<style type="text/css">
	.st0{fill:#FF4200;}
	.st1{fill:#8F00FF;}
</style>
<g>
	<g>
		<path class="st0" d="M480.8,34c5-5,7.3-11.6,6.8-18.2l6.1,6.1l0,0L505.8,34c6.9,6.9,6.9,18.1,0,25l-29.2,29.2
			c-6.9,6.9-18.1,6.9-25,0v0c-6.9-6.9-6.9-18.1,0-25L480.8,34z"/>
	</g>
	<path class="st1" d="M476.6,4.8c6.9,6.9,6.9,18.1,0,25l-12.5,12.5l-12.5-12.5c-6.9-6.9-6.9-18.1,0-25v0
		C458.5-2.1,469.7-2.1,476.6,4.8L476.6,4.8z"/>
</g>
<path fill="#FFFFFF" d="M66,22.9c-16.3,0-29.5,13.2-29.5,29.5S49.8,81.9,66,81.9s29.5-13.2,29.5-29.5S82.3,22.9,66,22.9z M66,70.1
	c-9.8,0-17.7-7.9-17.7-17.7S56.3,34.7,66,34.7s17.7,7.9,17.7,17.7S75.8,70.1,66,70.1z M274.8,22.9c-6.6,0-12.8,2.2-17.7,5.9V11.1
	c0-3.3-2.6-5.9-5.9-5.9h-5.9v76.7h11.8V76c4.9,3.7,11.1,5.9,17.7,5.9c16.3,0,29.5-13.2,29.5-29.5S291.1,22.9,274.8,22.9z
	 M274.8,70.1c-9.8,0-17.7-7.9-17.7-17.7s7.9-17.7,17.7-17.7s17.7,7.9,17.7,17.7S284.6,70.1,274.8,70.1z M220.6,22.9h11.8v55.5
	c0,16.2-12.8,29.7-29,30c-16.5,0.3-30-13-30-29.5h6.6c2.7,0,5,1.8,5.7,4.4c2,7.8,9.2,13.5,17.7,13.3c9.6-0.3,17.2-8.4,17.2-18.1
	v-8.5c-5,3.7-11.2,5.9-17.9,5.9c-16.3-0.1-29.3-13.7-29.3-30V22.9h5.9c3.3,0,5.9,2.6,5.9,5.9v17.3c0,9.6,7.5,17.8,17.2,18.1
	c10,0.3,18.2-7.8,18.2-17.7V22.9z M162.8,52.4v29.5h-5.9c-3.3,0-5.9-2.6-5.9-5.9V52.4c0-9.8-7.9-17.7-17.7-17.7s-17.7,7.9-17.7,17.7
	v29.5h-11.8v-59h11.8v5.9c4.9-3.7,11.1-5.9,17.7-5.9C149.6,22.9,162.8,36.1,162.8,52.4z M29.5,70.1v11.8C13.2,81.9,0,68.7,0,52.4
	V11.1h5.9c3.3,0,5.9,2.6,5.9,5.9v5.9h17.7v11.8H11.8v17.7C11.8,62.1,19.7,70.1,29.5,70.1z M390.4,34.7v17.7
	c0,9.8,7.9,17.7,17.7,17.7v11.8c-16.3,0-29.5-13.2-29.5-29.5V11.1h5.9c3.3,0,5.9,2.6,5.9,5.9v5.9h17.7v11.8H390.4z M369.5,56.5
	c0.2-1.3,0.3-2.7,0.3-4.1c0-16.7-13.8-30.1-30.6-29.5c-15.3,0.6-27.7,13-28.3,28.3c-0.6,16.8,12.8,30.6,29.5,30.6
	c9.6,0,18.1-4.6,23.4-11.6l-3.6-2.1c-3.5-2-7.9-2.1-11.5-0.2c-2.9,1.6-6.3,2.4-9.9,2c-7.6-0.7-13.9-6.2-15.7-13.5H369.5z
	 M342.1,34.8c6.8,0.7,12.6,5.4,14.8,11.7h-33.3C326.2,39.1,333.6,33.9,342.1,34.8z"/>
</svg>
